<svg width="33" height="33" viewBox="0 0 33 33" fill="none" xmlns="http://www.w3.org/2000/svg">
<path d="M8.24967 15.3225H8.23309C7.5823 15.3225 7.0542 15.8495 7.0542 16.5014C7.0542 17.1531 7.58114 17.6803 8.23309 17.6803H8.25059H24.7494H24.766C25.4168 17.6803 25.9449 17.1534 25.9449 16.5014C25.9449 15.8497 25.4179 15.3225 24.766 15.3225H24.7485H8.24967Z" fill="black"/>
<path d="M17.6786 8.25061V8.23404C17.6786 7.58324 17.1516 7.05515 16.4997 7.05515C15.848 7.05515 15.3208 7.58209 15.3208 8.23404V8.25153V8.25061V24.7506V24.7672C15.3208 25.418 15.8477 25.9461 16.4997 25.9461C17.1514 25.9461 17.6786 25.4191 17.6786 24.7672V24.7497V24.7506V8.25061Z" fill="black"/>
<path d="M16.5 0C7.40078 0 0 7.40196 0 16.5C0 25.598 7.40196 33 16.5 33C25.5992 33 33 25.598 33 16.5C33 7.40196 25.598 0 16.5 0ZM16.5 2.35755C24.3257 2.35755 30.6439 8.67632 30.6439 16.5014C30.6439 24.3265 24.3263 30.6453 16.5 30.6453C8.67432 30.6453 2.35613 24.3277 2.35613 16.5014C2.35613 8.67573 8.67373 2.35755 16.5 2.35755Z" fill="black"/>
</svg>
