<svg width="131" height="20" viewBox="0 0 131 20" fill="none" xmlns="http://www.w3.org/2000/svg">
<path d="M0.378906 19V1.89062L1.62109 1.30469H7.41016C9.75391 1.30469 10.9258 2.47656 10.9258 4.82031V6.74219C10.9258 7.60156 10.6992 8.28516 10.2461 8.79297C11.4023 9.44922 11.9805 10.6016 11.9805 12.25V14.8984C11.9805 17.6328 10.6133 19 7.87891 19H0.378906ZM2.72266 16.8906H7.87891C9.05078 16.8906 9.63672 16.2266 9.63672 14.8984V12.25C9.63672 10.9219 9.05078 10.2578 7.87891 10.2578H2.72266V16.8906ZM2.72266 8.14844H7.41016C8.19141 8.14844 8.58203 7.67969 8.58203 6.74219V4.82031C8.58203 3.88281 8.19141 3.41406 7.41016 3.41406H2.72266V8.14844ZM18.7773 3.41406V10.9141H23.9336C25.1055 10.9141 25.6914 10.25 25.6914 8.92188V5.40625C25.6914 4.07813 25.1055 3.41406 23.9336 3.41406H18.7773ZM16.4336 19.4688V1.89062L17.6758 1.30469H23.9336C26.668 1.30469 28.0352 2.67188 28.0352 5.40625V8.92188C28.0352 11.4688 26.8516 12.8281 24.4844 13L28.3164 18.4961L26.2539 19.4688H26.1367L21.625 13.0234H18.7773V18.4141L16.5508 19.4688H16.4336ZM32.418 19.4688V5.40625C32.418 2.67188 33.7852 1.30469 36.5195 1.30469H40.1523C42.8867 1.30469 44.2539 2.67188 44.2539 5.40625V18.4141L42.0273 19.4688H41.9102V11.2188H34.7617V18.4141L32.5352 19.4688H32.418ZM34.7617 9.08594H41.9102V5.40625C41.9102 4.07813 41.3242 3.41406 40.1523 3.41406H36.5195C35.3477 3.41406 34.7617 4.07813 34.7617 5.40625V9.08594ZM48.9414 19.4688V1.89062L51.168 0.835938H51.2852V18.4141L49.0586 19.4688H48.9414ZM55.9727 19.4688V5.40625C55.9727 2.67188 57.3398 1.30469 60.0742 1.30469H63.707C66.4414 1.30469 67.8086 2.67188 67.8086 5.40625V18.4141L65.582 19.4688H65.4648V5.40625C65.4648 4.07813 64.8789 3.41406 63.707 3.41406H60.0742C58.9023 3.41406 58.3164 4.07813 58.3164 5.40625V18.4141L56.0898 19.4688H55.9727ZM76.1289 19C73.3945 19 72.0273 17.6328 72.0273 14.8984V13.6094L74.2539 12.5547H74.3711V14.8984C74.3711 16.2266 74.957 16.8906 76.1289 16.8906H79.7617C80.9336 16.8906 81.5195 16.2266 81.5195 14.8984V12.4375C81.5195 11.1094 80.9336 10.4453 79.7617 10.4453H76.5977C74.2539 10.4453 73.082 9.27344 73.082 6.92969V4.82031C73.082 2.47656 74.2539 1.30469 76.5977 1.30469H79.293C81.6367 1.30469 82.8086 2.47656 82.8086 4.82031V5.44141L80.582 6.49609H80.4648V4.82031C80.4648 3.88281 80.0742 3.41406 79.293 3.41406H76.5977C75.8164 3.41406 75.4258 3.88281 75.4258 4.82031V6.92969C75.4258 7.86719 75.8164 8.33594 76.5977 8.33594H79.7617C82.4961 8.33594 83.8633 9.70312 83.8633 12.4375V14.8984C83.8633 17.6328 82.4961 19 79.7617 19H76.1289ZM91.6562 19.4688V13.3516H91.0117C88.2773 13.3516 86.9102 11.9844 86.9102 9.25V1.89062L89.1367 0.835938H89.2539V9.25C89.2539 10.5781 89.8398 11.2422 91.0117 11.2422H94.6445C95.8164 11.2422 96.4023 10.5781 96.4023 9.25V1.89062L98.6289 0.835938H98.7461V9.25C98.7461 11.9844 97.3789 13.3516 94.6445 13.3516H94V18.4141L91.7734 19.4688H91.6562ZM102.262 19.4688V5.40625C102.262 2.67188 103.629 1.30469 106.363 1.30469H109.996C112.73 1.30469 114.098 2.67188 114.098 5.40625V18.4141L111.871 19.4688H111.754V5.40625C111.754 4.07813 111.168 3.41406 109.996 3.41406H106.363C105.191 3.41406 104.605 4.07813 104.605 5.40625V18.4141L102.379 19.4688H102.262ZM122.887 19C120.152 19 118.785 17.6328 118.785 14.8984V5.40625C118.785 2.67188 120.152 1.30469 122.887 1.30469H126.52C129.254 1.30469 130.621 2.67188 130.621 5.40625V6.69531L128.395 7.75H128.277V5.40625C128.277 4.07813 127.691 3.41406 126.52 3.41406H122.887C121.715 3.41406 121.129 4.07813 121.129 5.40625V14.8984C121.129 16.2266 121.715 16.8906 122.887 16.8906H126.52C127.691 16.8906 128.277 16.2266 128.277 14.8984V13.6094L130.504 12.5547H130.621V14.8984C130.621 17.6328 129.254 19 126.52 19H122.887Z" fill="#10ABCD"/>
<path d="M0.378906 19H0.0789062V19.3H0.378906V19ZM0.378906 1.89062L0.250921 1.6193L0.0789062 1.70043V1.89062H0.378906ZM1.62109 1.30469V1.00469H1.55389L1.49311 1.03336L1.62109 1.30469ZM10.2461 8.79297L10.0223 8.59323L9.77487 8.87047L10.098 9.05387L10.2461 8.79297ZM2.72266 16.8906H2.42266V17.1906H2.72266V16.8906ZM2.72266 10.2578V9.95781H2.42266V10.2578H2.72266ZM2.72266 8.14844H2.42266V8.44844H2.72266V8.14844ZM2.72266 3.41406V3.11406H2.42266V3.41406H2.72266ZM0.678906 19V1.89062H0.0789062V19H0.678906ZM0.506892 2.16195L1.74908 1.57602L1.49311 1.03336L0.250921 1.6193L0.506892 2.16195ZM1.62109 1.60469H7.41016V1.00469H1.62109V1.60469ZM7.41016 1.60469C8.53579 1.60469 9.32491 1.88589 9.83474 2.39573C10.3446 2.90556 10.6258 3.69468 10.6258 4.82031H11.2258C11.2258 3.60219 10.921 2.6335 10.259 1.97146C9.59697 1.30942 8.62827 1.00469 7.41016 1.00469V1.60469ZM10.6258 4.82031V6.74219H11.2258V4.82031H10.6258ZM10.6258 6.74219C10.6258 7.54792 10.4145 8.1537 10.0223 8.59323L10.4699 8.99271C10.984 8.41662 11.2258 7.6552 11.2258 6.74219H10.6258ZM10.098 9.05387C11.1366 9.64337 11.6805 10.6792 11.6805 12.25H12.2805C12.2805 10.5239 11.668 9.25507 10.3942 8.53206L10.098 9.05387ZM11.6805 12.25V14.8984H12.2805V12.25H11.6805ZM11.6805 14.8984C11.6805 16.2194 11.3504 17.155 10.7429 17.7625C10.1355 18.37 9.19985 18.7 7.87891 18.7V19.3C9.29234 19.3 10.4075 18.9464 11.1672 18.1867C11.9269 17.427 12.2805 16.3119 12.2805 14.8984H11.6805ZM7.87891 18.7H0.378906V19.3H7.87891V18.7ZM2.72266 17.1906H7.87891V16.5906H2.72266V17.1906ZM7.87891 17.1906C8.52151 17.1906 9.05537 17.0068 9.42222 16.5911C9.78274 16.1825 9.93672 15.6001 9.93672 14.8984H9.33672C9.33672 15.5249 9.19773 15.9386 8.97231 16.1941C8.75322 16.4424 8.40818 16.5906 7.87891 16.5906V17.1906ZM9.93672 14.8984V12.25H9.33672V14.8984H9.93672ZM9.93672 12.25C9.93672 11.5483 9.78274 10.966 9.42222 10.5574C9.05537 10.1416 8.52151 9.95781 7.87891 9.95781V10.5578C8.40818 10.5578 8.75322 10.706 8.97231 10.9543C9.19773 11.2098 9.33672 11.6236 9.33672 12.25H9.93672ZM7.87891 9.95781H2.72266V10.5578H7.87891V9.95781ZM2.42266 10.2578V16.8906H3.02266V10.2578H2.42266ZM2.72266 8.44844H7.41016V7.84844H2.72266V8.44844ZM7.41016 8.44844C7.86286 8.44844 8.25196 8.31001 8.51953 7.98893C8.77837 7.67832 8.88203 7.24521 8.88203 6.74219H8.28203C8.28203 7.17667 8.19038 7.44668 8.0586 7.60482C7.93554 7.75249 7.7387 7.84844 7.41016 7.84844V8.44844ZM8.88203 6.74219V4.82031H8.28203V6.74219H8.88203ZM8.88203 4.82031C8.88203 4.31729 8.77837 3.88418 8.51953 3.57357C8.25196 3.25249 7.86286 3.11406 7.41016 3.11406V3.71406C7.7387 3.71406 7.93554 3.81001 8.0586 3.95768C8.19038 4.11582 8.28203 4.38583 8.28203 4.82031H8.88203ZM7.41016 3.11406H2.72266V3.71406H7.41016V3.11406ZM2.42266 3.41406V8.14844H3.02266V3.41406H2.42266ZM18.7773 3.41406V3.11406H18.4773V3.41406H18.7773ZM18.7773 10.9141H18.4773V11.2141H18.7773V10.9141ZM16.4336 19.4688H16.1336V19.7688H16.4336V19.4688ZM16.4336 1.89062L16.3056 1.6193L16.1336 1.70043V1.89062H16.4336ZM17.6758 1.30469V1.00469H17.6086L17.5478 1.03336L17.6758 1.30469ZM24.4844 13L24.4627 12.7008L23.9367 12.739L24.2383 13.1716L24.4844 13ZM28.3164 18.4961L28.4444 18.7674L28.7657 18.6159L28.5625 18.3245L28.3164 18.4961ZM26.2539 19.4688V19.7688H26.3211L26.3819 19.7401L26.2539 19.4688ZM26.1367 19.4688L25.8909 19.6408L25.9805 19.7688H26.1367V19.4688ZM21.625 13.0234L21.8708 12.8514L21.7812 12.7234H21.625V13.0234ZM18.7773 13.0234V12.7234H18.4773V13.0234H18.7773ZM18.7773 18.4141L18.9058 18.6852L19.0773 18.6039V18.4141H18.7773ZM16.5508 19.4688V19.7688H16.6182L16.6792 19.7399L16.5508 19.4688ZM18.4773 3.41406V10.9141H19.0773V3.41406H18.4773ZM18.7773 11.2141H23.9336V10.6141H18.7773V11.2141ZM23.9336 11.2141C24.5762 11.2141 25.1101 11.0303 25.4769 10.6145C25.8374 10.2059 25.9914 9.62359 25.9914 8.92188H25.3914C25.3914 9.54829 25.2524 9.96206 25.027 10.2175C24.8079 10.4658 24.4629 10.6141 23.9336 10.6141V11.2141ZM25.9914 8.92188V5.40625H25.3914V8.92188H25.9914ZM25.9914 5.40625C25.9914 4.70454 25.8374 4.12222 25.4769 3.71362C25.1101 3.29786 24.5762 3.11406 23.9336 3.11406V3.71406C24.4629 3.71406 24.8079 3.86229 25.027 4.1106C25.2524 4.36606 25.3914 4.77984 25.3914 5.40625H25.9914ZM23.9336 3.11406H18.7773V3.71406H23.9336V3.11406ZM16.7336 19.4688V1.89062H16.1336V19.4688H16.7336ZM16.5616 2.16195L17.8038 1.57602L17.5478 1.03336L16.3056 1.6193L16.5616 2.16195ZM17.6758 1.60469H23.9336V1.00469H17.6758V1.60469ZM23.9336 1.60469C25.2545 1.60469 26.1901 1.93472 26.7976 2.54221C27.4051 3.1497 27.7352 4.08531 27.7352 5.40625H28.3352C28.3352 3.99282 27.9816 2.87764 27.2219 2.11795C26.4622 1.35825 25.347 1.00469 23.9336 1.00469V1.60469ZM27.7352 5.40625V8.92188H28.3352V5.40625H27.7352ZM27.7352 8.92188C27.7352 10.1525 27.4491 11.0483 26.9212 11.6546C26.3963 12.2574 25.5932 12.6187 24.4627 12.7008L24.5061 13.2992C25.7428 13.2094 26.715 12.8051 27.3737 12.0486C28.0295 11.2954 28.3352 10.2381 28.3352 8.92188H27.7352ZM24.2383 13.1716L28.0703 18.6677L28.5625 18.3245L24.7305 12.8284L24.2383 13.1716ZM28.1884 18.2248L26.1259 19.1974L26.3819 19.7401L28.4444 18.7674L28.1884 18.2248ZM26.2539 19.1687H26.1367V19.7688H26.2539V19.1687ZM26.3825 19.2967L21.8708 12.8514L21.3792 13.1955L25.8909 19.6408L26.3825 19.2967ZM21.625 12.7234H18.7773V13.3234H21.625V12.7234ZM18.4773 13.0234V18.4141H19.0773V13.0234H18.4773ZM18.6489 18.1429L16.4224 19.1976L16.6792 19.7399L18.9058 18.6852L18.6489 18.1429ZM16.5508 19.1687H16.4336V19.7688H16.5508V19.1687ZM32.418 19.4688H32.118V19.7688H32.418V19.4688ZM44.2539 18.4141L44.3823 18.6852L44.5539 18.6039V18.4141H44.2539ZM42.0273 19.4688V19.7688H42.0948L42.1558 19.7399L42.0273 19.4688ZM41.9102 19.4688H41.6102V19.7688H41.9102V19.4688ZM41.9102 11.2188H42.2102V10.9187H41.9102V11.2188ZM34.7617 11.2188V10.9187H34.4617V11.2188H34.7617ZM34.7617 18.4141L34.8901 18.6852L35.0617 18.6039V18.4141H34.7617ZM32.5352 19.4688V19.7688H32.6026L32.6636 19.7399L32.5352 19.4688ZM34.7617 9.08594H34.4617V9.38594H34.7617V9.08594ZM41.9102 9.08594V9.38594H42.2102V9.08594H41.9102ZM32.718 19.4688V5.40625H32.118V19.4688H32.718ZM32.718 5.40625C32.718 4.08531 33.048 3.1497 33.6555 2.54221C34.263 1.93472 35.1986 1.60469 36.5195 1.60469V1.00469C35.1061 1.00469 33.9909 1.35825 33.2312 2.11795C32.4715 2.87764 32.118 3.99282 32.118 5.40625H32.718ZM36.5195 1.60469H40.1523V1.00469H36.5195V1.60469ZM40.1523 1.60469C41.4733 1.60469 42.4089 1.93472 43.0164 2.54221C43.6239 3.1497 43.9539 4.08531 43.9539 5.40625H44.5539C44.5539 3.99282 44.2003 2.87764 43.4406 2.11795C42.6809 1.35825 41.5658 1.00469 40.1523 1.00469V1.60469ZM43.9539 5.40625V18.4141H44.5539V5.40625H43.9539ZM44.1255 18.1429L41.8989 19.1976L42.1558 19.7399L44.3823 18.6852L44.1255 18.1429ZM42.0273 19.1687H41.9102V19.7688H42.0273V19.1687ZM42.2102 19.4688V11.2188H41.6102V19.4688H42.2102ZM41.9102 10.9187H34.7617V11.5188H41.9102V10.9187ZM34.4617 11.2188V18.4141H35.0617V11.2188H34.4617ZM34.6333 18.1429L32.4067 19.1976L32.6636 19.7399L34.8901 18.6852L34.6333 18.1429ZM32.5352 19.1687H32.418V19.7688H32.5352V19.1687ZM34.7617 9.38594H41.9102V8.78594H34.7617V9.38594ZM42.2102 9.08594V5.40625H41.6102V9.08594H42.2102ZM42.2102 5.40625C42.2102 4.70454 42.0562 4.12222 41.6957 3.71362C41.3288 3.29786 40.7949 3.11406 40.1523 3.11406V3.71406C40.6816 3.71406 41.0267 3.86229 41.2458 4.1106C41.4712 4.36606 41.6102 4.77984 41.6102 5.40625H42.2102ZM40.1523 3.11406H36.5195V3.71406H40.1523V3.11406ZM36.5195 3.11406C35.8769 3.11406 35.3431 3.29786 34.9762 3.71362C34.6157 4.12222 34.4617 4.70454 34.4617 5.40625H35.0617C35.0617 4.77984 35.2007 4.36606 35.4261 4.1106C35.6452 3.86229 35.9903 3.71406 36.5195 3.71406V3.11406ZM34.4617 5.40625V9.08594H35.0617V5.40625H34.4617ZM48.9414 19.4688H48.6414V19.7688H48.9414V19.4688ZM48.9414 1.89062L48.813 1.6195L48.6414 1.70078V1.89062H48.9414ZM51.168 0.835938V0.535937H51.1005L51.0395 0.564816L51.168 0.835938ZM51.2852 0.835938H51.5852V0.535937H51.2852V0.835938ZM51.2852 18.4141L51.4136 18.6852L51.5852 18.6039V18.4141H51.2852ZM49.0586 19.4688V19.7688H49.1261L49.187 19.7399L49.0586 19.4688ZM49.2414 19.4688V1.89062H48.6414V19.4688H49.2414ZM49.0698 2.16175L51.2964 1.10706L51.0395 0.564816L48.813 1.6195L49.0698 2.16175ZM51.168 1.13594H51.2852V0.535937H51.168V1.13594ZM50.9852 0.835938V18.4141H51.5852V0.835938H50.9852ZM51.1567 18.1429L48.9302 19.1976L49.187 19.7399L51.4136 18.6852L51.1567 18.1429ZM49.0586 19.1687H48.9414V19.7688H49.0586V19.1687ZM55.9727 19.4688H55.6727V19.7688H55.9727V19.4688ZM67.8086 18.4141L67.937 18.6852L68.1086 18.6039V18.4141H67.8086ZM65.582 19.4688V19.7688H65.6495L65.7105 19.7399L65.582 19.4688ZM65.4648 19.4688H65.1648V19.7688H65.4648V19.4688ZM58.3164 18.4141L58.4448 18.6852L58.6164 18.6039V18.4141H58.3164ZM56.0898 19.4688V19.7688H56.1573L56.2183 19.7399L56.0898 19.4688ZM56.2727 19.4688V5.40625H55.6727V19.4688H56.2727ZM56.2727 5.40625C56.2727 4.08531 56.6027 3.1497 57.2102 2.54221C57.8177 1.93472 58.7533 1.60469 60.0742 1.60469V1.00469C58.6608 1.00469 57.5456 1.35825 56.7859 2.11795C56.0262 2.87764 55.6727 3.99282 55.6727 5.40625H56.2727ZM60.0742 1.60469H63.707V1.00469H60.0742V1.60469ZM63.707 1.60469C65.028 1.60469 65.9636 1.93472 66.5711 2.54221C67.1786 3.1497 67.5086 4.08531 67.5086 5.40625H68.1086C68.1086 3.99282 67.755 2.87764 66.9953 2.11795C66.2356 1.35825 65.1205 1.00469 63.707 1.00469V1.60469ZM67.5086 5.40625V18.4141H68.1086V5.40625H67.5086ZM67.6802 18.1429L65.4536 19.1976L65.7105 19.7399L67.937 18.6852L67.6802 18.1429ZM65.582 19.1687H65.4648V19.7688H65.582V19.1687ZM65.7648 19.4688V5.40625H65.1648V19.4688H65.7648ZM65.7648 5.40625C65.7648 4.70454 65.6109 4.12222 65.2503 3.71362C64.8835 3.29786 64.3496 3.11406 63.707 3.11406V3.71406C64.2363 3.71406 64.5813 3.86229 64.8004 4.1106C65.0259 4.36606 65.1648 4.77984 65.1648 5.40625H65.7648ZM63.707 3.11406H60.0742V3.71406H63.707V3.11406ZM60.0742 3.11406C59.4316 3.11406 58.8978 3.29786 58.5309 3.71362C58.1704 4.12222 58.0164 4.70454 58.0164 5.40625H58.6164C58.6164 4.77984 58.7554 4.36606 58.9808 4.1106C59.1999 3.86229 59.5449 3.71406 60.0742 3.71406V3.11406ZM58.0164 5.40625V18.4141H58.6164V5.40625H58.0164ZM58.188 18.1429L55.9614 19.1976L56.2183 19.7399L58.4448 18.6852L58.188 18.1429ZM56.0898 19.1687H55.9727V19.7688H56.0898V19.1687ZM72.0273 13.6094L71.8989 13.3383L71.7273 13.4195V13.6094H72.0273ZM74.2539 12.5547V12.2547H74.1864L74.1255 12.2836L74.2539 12.5547ZM74.3711 12.5547H74.6711V12.2547H74.3711V12.5547ZM82.8086 5.44141L82.937 5.71253L83.1086 5.63126V5.44141H82.8086ZM80.582 6.49609V6.79609H80.6495L80.7105 6.76722L80.582 6.49609ZM80.4648 6.49609H80.1648V6.79609H80.4648V6.49609ZM76.1289 18.7C74.808 18.7 73.8724 18.37 73.2649 17.7625C72.6574 17.155 72.3273 16.2194 72.3273 14.8984H71.7273C71.7273 16.3119 72.0809 17.427 72.8406 18.1867C73.6003 18.9464 74.7155 19.3 76.1289 19.3V18.7ZM72.3273 14.8984V13.6094H71.7273V14.8984H72.3273ZM72.1558 13.8805L74.3823 12.8258L74.1255 12.2836L71.8989 13.3383L72.1558 13.8805ZM74.2539 12.8547H74.3711V12.2547H74.2539V12.8547ZM74.0711 12.5547V14.8984H74.6711V12.5547H74.0711ZM74.0711 14.8984C74.0711 15.6001 74.2251 16.1825 74.5856 16.5911C74.9524 17.0068 75.4863 17.1906 76.1289 17.1906V16.5906C75.5996 16.5906 75.2546 16.4424 75.0355 16.1941C74.8101 15.9386 74.6711 15.5249 74.6711 14.8984H74.0711ZM76.1289 17.1906H79.7617V16.5906H76.1289V17.1906ZM79.7617 17.1906C80.4043 17.1906 80.9382 17.0068 81.305 16.5911C81.6656 16.1825 81.8195 15.6001 81.8195 14.8984H81.2195C81.2195 15.5249 81.0805 15.9386 80.8551 16.1941C80.636 16.4424 80.291 16.5906 79.7617 16.5906V17.1906ZM81.8195 14.8984V12.4375H81.2195V14.8984H81.8195ZM81.8195 12.4375C81.8195 11.7358 81.6656 11.1535 81.305 10.7449C80.9382 10.3291 80.4043 10.1453 79.7617 10.1453V10.7453C80.291 10.7453 80.636 10.8935 80.8551 11.1418C81.0805 11.3973 81.2195 11.8111 81.2195 12.4375H81.8195ZM79.7617 10.1453H76.5977V10.7453H79.7617V10.1453ZM76.5977 10.1453C75.472 10.1453 74.6829 9.86411 74.1731 9.35427C73.6632 8.84444 73.382 8.05532 73.382 6.92969H72.782C72.782 8.14781 73.0868 9.1165 73.7488 9.77854C74.4108 10.4406 75.3795 10.7453 76.5977 10.7453V10.1453ZM73.382 6.92969V4.82031H72.782V6.92969H73.382ZM73.382 4.82031C73.382 3.69468 73.6632 2.90556 74.1731 2.39573C74.6829 1.88589 75.472 1.60469 76.5977 1.60469V1.00469C75.3795 1.00469 74.4108 1.30942 73.7488 1.97146C73.0868 2.6335 72.782 3.60219 72.782 4.82031H73.382ZM76.5977 1.60469H79.293V1.00469H76.5977V1.60469ZM79.293 1.60469C80.4186 1.60469 81.2077 1.88589 81.7176 2.39573C82.2274 2.90556 82.5086 3.69468 82.5086 4.82031H83.1086C83.1086 3.60219 82.8039 2.6335 82.1418 1.97146C81.4798 1.30942 80.5111 1.00469 79.293 1.00469V1.60469ZM82.5086 4.82031V5.44141H83.1086V4.82031H82.5086ZM82.6802 5.17028L80.4536 6.22497L80.7105 6.76722L82.937 5.71253L82.6802 5.17028ZM80.582 6.19609H80.4648V6.79609H80.582V6.19609ZM80.7648 6.49609V4.82031H80.1648V6.49609H80.7648ZM80.7648 4.82031C80.7648 4.31729 80.6612 3.88418 80.4023 3.57357C80.1348 3.25249 79.7457 3.11406 79.293 3.11406V3.71406C79.6215 3.71406 79.8184 3.81001 79.9414 3.95768C80.0732 4.11582 80.1648 4.38583 80.1648 4.82031H80.7648ZM79.293 3.11406H76.5977V3.71406H79.293V3.11406ZM76.5977 3.11406C76.145 3.11406 75.7559 3.25249 75.4883 3.57357C75.2294 3.88418 75.1258 4.31729 75.1258 4.82031H75.7258C75.7258 4.38583 75.8174 4.11582 75.9492 3.95768C76.0723 3.81001 76.2691 3.71406 76.5977 3.71406V3.11406ZM75.1258 4.82031V6.92969H75.7258V4.82031H75.1258ZM75.1258 6.92969C75.1258 7.43271 75.2294 7.86582 75.4883 8.17643C75.7559 8.49751 76.145 8.63594 76.5977 8.63594V8.03594C76.2691 8.03594 76.0723 7.93999 75.9492 7.79232C75.8174 7.63418 75.7258 7.36417 75.7258 6.92969H75.1258ZM76.5977 8.63594H79.7617V8.03594H76.5977V8.63594ZM79.7617 8.63594C81.0827 8.63594 82.0183 8.96597 82.6258 9.57346C83.2332 10.1809 83.5633 11.1166 83.5633 12.4375H84.1633C84.1633 11.0241 83.8097 9.90889 83.05 9.1492C82.2903 8.3895 81.1751 8.03594 79.7617 8.03594V8.63594ZM83.5633 12.4375V14.8984H84.1633V12.4375H83.5633ZM83.5633 14.8984C83.5633 16.2194 83.2332 17.155 82.6258 17.7625C82.0183 18.37 81.0827 18.7 79.7617 18.7V19.3C81.1751 19.3 82.2903 18.9464 83.05 18.1867C83.8097 17.427 84.1633 16.3119 84.1633 14.8984H83.5633ZM79.7617 18.7H76.1289V19.3H79.7617V18.7ZM91.6562 19.4688H91.3562V19.7688H91.6562V19.4688ZM91.6562 13.3516H91.9563V13.0516H91.6562V13.3516ZM86.9102 1.89062L86.7817 1.6195L86.6102 1.70078V1.89062H86.9102ZM89.1367 0.835938V0.535937H89.0693L89.0083 0.564816L89.1367 0.835938ZM89.2539 0.835938H89.5539V0.535937H89.2539V0.835938ZM96.4023 1.89062L96.2739 1.6195L96.1023 1.70078V1.89062H96.4023ZM98.6289 0.835938V0.535937H98.5614L98.5005 0.564816L98.6289 0.835938ZM98.7461 0.835938H99.0461V0.535937H98.7461V0.835938ZM94 13.3516V13.0516H93.7V13.3516H94ZM94 18.4141L94.1284 18.6852L94.3 18.6039V18.4141H94ZM91.7734 19.4688V19.7688H91.8409L91.9019 19.7399L91.7734 19.4688ZM91.9563 19.4688V13.3516H91.3562V19.4688H91.9563ZM91.6562 13.0516H91.0117V13.6516H91.6562V13.0516ZM91.0117 13.0516C89.6908 13.0516 88.7552 12.7215 88.1477 12.114C87.5402 11.5066 87.2102 10.5709 87.2102 9.25H86.6102C86.6102 10.6634 86.9637 11.7786 87.7234 12.5383C88.4831 13.298 89.5983 13.6516 91.0117 13.6516V13.0516ZM87.2102 9.25V1.89062H86.6102V9.25H87.2102ZM87.0386 2.16175L89.2651 1.10706L89.0083 0.564816L86.7817 1.6195L87.0386 2.16175ZM89.1367 1.13594H89.2539V0.535937H89.1367V1.13594ZM88.9539 0.835938V9.25H89.5539V0.835938H88.9539ZM88.9539 9.25C88.9539 9.95171 89.1079 10.534 89.4684 10.9426C89.8353 11.3584 90.3691 11.5422 91.0117 11.5422V10.9422C90.4824 10.9422 90.1374 10.794 89.9183 10.5457C89.6929 10.2902 89.5539 9.87641 89.5539 9.25H88.9539ZM91.0117 11.5422H94.6445V10.9422H91.0117V11.5422ZM94.6445 11.5422C95.2871 11.5422 95.821 11.3584 96.1878 10.9426C96.5484 10.534 96.7023 9.95171 96.7023 9.25H96.1023C96.1023 9.87641 95.9634 10.2902 95.7379 10.5457C95.5188 10.794 95.1738 10.9422 94.6445 10.9422V11.5422ZM96.7023 9.25V1.89062H96.1023V9.25H96.7023ZM96.5308 2.16175L98.7573 1.10706L98.5005 0.564816L96.2739 1.6195L96.5308 2.16175ZM98.6289 1.13594H98.7461V0.535937H98.6289V1.13594ZM98.4461 0.835938V9.25H99.0461V0.835938H98.4461ZM98.4461 9.25C98.4461 10.5709 98.1161 11.5066 97.5086 12.114C96.9011 12.7215 95.9655 13.0516 94.6445 13.0516V13.6516C96.058 13.6516 97.1731 13.298 97.9328 12.5383C98.6925 11.7786 99.0461 10.6634 99.0461 9.25H98.4461ZM94.6445 13.0516H94V13.6516H94.6445V13.0516ZM93.7 13.3516V18.4141H94.3V13.3516H93.7ZM93.8716 18.1429L91.645 19.1976L91.9019 19.7399L94.1284 18.6852L93.8716 18.1429ZM91.7734 19.1687H91.6562V19.7688H91.7734V19.1687ZM102.262 19.4688H101.962V19.7688H102.262V19.4688ZM114.098 18.4141L114.226 18.6852L114.398 18.6039V18.4141H114.098ZM111.871 19.4688V19.7688H111.939L112 19.7399L111.871 19.4688ZM111.754 19.4688H111.454V19.7688H111.754V19.4688ZM104.605 18.4141L104.734 18.6852L104.905 18.6039V18.4141H104.605ZM102.379 19.4688V19.7688H102.446L102.507 19.7399L102.379 19.4688ZM102.562 19.4688V5.40625H101.962V19.4688H102.562ZM102.562 5.40625C102.562 4.08531 102.892 3.1497 103.499 2.54221C104.107 1.93472 105.042 1.60469 106.363 1.60469V1.00469C104.95 1.00469 103.835 1.35825 103.075 2.11795C102.315 2.87764 101.962 3.99282 101.962 5.40625H102.562ZM106.363 1.60469H109.996V1.00469H106.363V1.60469ZM109.996 1.60469C111.317 1.60469 112.253 1.93472 112.86 2.54221C113.468 3.1497 113.798 4.08531 113.798 5.40625H114.398C114.398 3.99282 114.044 2.87764 113.284 2.11795C112.525 1.35825 111.41 1.00469 109.996 1.00469V1.60469ZM113.798 5.40625V18.4141H114.398V5.40625H113.798ZM113.969 18.1429L111.743 19.1976L112 19.7399L114.226 18.6852L113.969 18.1429ZM111.871 19.1687H111.754V19.7688H111.871V19.1687ZM112.054 19.4688V5.40625H111.454V19.4688H112.054ZM112.054 5.40625C112.054 4.70454 111.9 4.12222 111.539 3.71362C111.173 3.29786 110.639 3.11406 109.996 3.11406V3.71406C110.525 3.71406 110.87 3.86229 111.09 4.1106C111.315 4.36606 111.454 4.77984 111.454 5.40625H112.054ZM109.996 3.11406H106.363V3.71406H109.996V3.11406ZM106.363 3.11406C105.721 3.11406 105.187 3.29786 104.82 3.71362C104.459 4.12222 104.305 4.70454 104.305 5.40625H104.905C104.905 4.77984 105.044 4.36606 105.27 4.1106C105.489 3.86229 105.834 3.71406 106.363 3.71406V3.11406ZM104.305 5.40625V18.4141H104.905V5.40625H104.305ZM104.477 18.1429L102.25 19.1976L102.507 19.7399L104.734 18.6852L104.477 18.1429ZM102.379 19.1687H102.262V19.7688H102.379V19.1687ZM130.621 6.69531L130.75 6.96643L130.921 6.88516V6.69531H130.621ZM128.395 7.75V8.05H128.462L128.523 8.02112L128.395 7.75ZM128.277 7.75H127.977V8.05H128.277V7.75ZM128.277 13.6094L128.149 13.3383L127.977 13.4195V13.6094H128.277ZM130.504 12.5547V12.2547H130.436L130.375 12.2836L130.504 12.5547ZM130.621 12.5547H130.921V12.2547H130.621V12.5547ZM122.887 18.7C121.566 18.7 120.63 18.37 120.023 17.7625C119.415 17.155 119.085 16.2194 119.085 14.8984H118.485C118.485 16.3119 118.839 17.427 119.598 18.1867C120.358 18.9464 121.473 19.3 122.887 19.3V18.7ZM119.085 14.8984V5.40625H118.485V14.8984H119.085ZM119.085 5.40625C119.085 4.08531 119.415 3.1497 120.023 2.54221C120.63 1.93472 121.566 1.60469 122.887 1.60469V1.00469C121.473 1.00469 120.358 1.35825 119.598 2.11795C118.839 2.87764 118.485 3.99282 118.485 5.40625H119.085ZM122.887 1.60469H126.52V1.00469H122.887V1.60469ZM126.52 1.60469C127.84 1.60469 128.776 1.93472 129.384 2.54221C129.991 3.1497 130.321 4.08531 130.321 5.40625H130.921C130.921 3.99282 130.568 2.87764 129.808 2.11795C129.048 1.35825 127.933 1.00469 126.52 1.00469V1.60469ZM130.321 5.40625V6.69531H130.921V5.40625H130.321ZM130.493 6.42419L128.266 7.47888L128.523 8.02112L130.75 6.96643L130.493 6.42419ZM128.395 7.45H128.277V8.05H128.395V7.45ZM128.577 7.75V5.40625H127.977V7.75H128.577ZM128.577 5.40625C128.577 4.70454 128.423 4.12222 128.063 3.71362C127.696 3.29786 127.162 3.11406 126.52 3.11406V3.71406C127.049 3.71406 127.394 3.86229 127.613 4.1106C127.838 4.36606 127.977 4.77984 127.977 5.40625H128.577ZM126.52 3.11406H122.887V3.71406H126.52V3.11406ZM122.887 3.11406C122.244 3.11406 121.71 3.29786 121.343 3.71362C120.983 4.12222 120.829 4.70454 120.829 5.40625H121.429C121.429 4.77984 121.568 4.36606 121.793 4.1106C122.012 3.86229 122.357 3.71406 122.887 3.71406V3.11406ZM120.829 5.40625V14.8984H121.429V5.40625H120.829ZM120.829 14.8984C120.829 15.6001 120.983 16.1825 121.343 16.5911C121.71 17.0068 122.244 17.1906 122.887 17.1906V16.5906C122.357 16.5906 122.012 16.4424 121.793 16.1941C121.568 15.9386 121.429 15.5249 121.429 14.8984H120.829ZM122.887 17.1906H126.52V16.5906H122.887V17.1906ZM126.52 17.1906C127.162 17.1906 127.696 17.0068 128.063 16.5911C128.423 16.1825 128.577 15.6001 128.577 14.8984H127.977C127.977 15.5249 127.838 15.9386 127.613 16.1941C127.394 16.4424 127.049 16.5906 126.52 16.5906V17.1906ZM128.577 14.8984V13.6094H127.977V14.8984H128.577ZM128.406 13.8805L130.632 12.8258L130.375 12.2836L128.149 13.3383L128.406 13.8805ZM130.504 12.8547H130.621V12.2547H130.504V12.8547ZM130.321 12.5547V14.8984H130.921V12.5547H130.321ZM130.321 14.8984C130.321 16.2194 129.991 17.155 129.384 17.7625C128.776 18.37 127.84 18.7 126.52 18.7V19.3C127.933 19.3 129.048 18.9464 129.808 18.1867C130.568 17.427 130.921 16.3119 130.921 14.8984H130.321ZM126.52 18.7H122.887V19.3H126.52V18.7Z" fill="#10ABCD"/>
</svg>
