<svg className="DeckFolderTemp" width="141" height="142" viewBox="0 0 141 142" fill="none" xmlns="http://www.w3.org/2000/svg">
<path d="M130.998 0H60.175L66.6281 17.262L140.839 20.9725V8.71167C140.839 6.53375 138.741 0 130.998 0Z" fill="#10ABCD"/>
<path d="M131.866 7.42105H74.0493L74.7026 20.0046L140.032 18.2429V16.4812C140.032 11.1961 134.887 7.42105 131.866 7.42105Z" fill="white"/>
<path d="M0 7.59401C-2.28066e-06 5.01301 3.5492 0.0122943 8.38901 0.0122943H60.3364C73.4845 -0.31033 74.2105 5.81957 74.2105 6.30351C74.2105 6.78745 75.9851 13.5515 79.6956 13.5515H131.804C138.741 13.5515 141 17.2728 141 20.983V132.612C141 136.322 135.031 141.484 131.804 141.484H8.873C4.51716 141.484 0 137.612 0 132.612V7.59401Z" fill="#E3F6FA"/>
</svg>
