<svg width="33" height="33" viewBox="0 0 33 33" fill="none" xmlns="http://www.w3.org/2000/svg">
<path d="M32.0829 32.9995L0.916451 32.9924H0.916758C0.673371 32.9924 0.440119 32.8961 0.268246 32.7239C0.0963738 32.552 0 32.3187 0 32.0757V0.917048C0 0.410639 0.410349 0.000289917 0.916758 0.000289917L19.2496 0.0039729C19.7557 0.0039729 20.1663 0.414322 20.1663 0.920417C20.1663 1.42683 19.7557 1.83718 19.2496 1.83718L1.83289 1.83349V31.1591L31.1663 31.1664L31.1626 13.7537C31.1626 13.2473 31.573 12.8369 32.0794 12.8369C32.5855 12.8369 32.9958 13.2473 32.9958 13.7537L32.9995 32.0833C32.9995 32.3264 32.9028 32.5597 32.731 32.7316C32.5591 32.9034 32.3258 33.0001 32.0828 33.0001L32.0829 32.9995Z" fill="#292929"/>
<path d="M17.4172 20.1665H13.7505C13.5074 20.1665 13.2742 20.0701 13.1023 19.8979C12.9301 19.7261 12.8337 19.4928 12.8337 19.2497V15.583C12.8337 15.3399 12.9304 15.107 13.1023 14.9351L27.769 0.268398C28.1269 -0.089466 28.7072 -0.089466 29.0651 0.268398L32.7318 3.93512C33.0897 4.29298 33.0897 4.87332 32.7318 5.23121L18.0651 19.8979C17.8932 20.0698 17.6603 20.1665 17.4172 20.1665L17.4172 20.1665ZM14.6673 18.3333H17.0376L30.7874 4.58349L28.4171 2.21286L14.6673 15.9627V18.3333Z" fill="#292929"/>
</svg>
